<svg width="504.81871337890624px" height="129.22501220703123px" xmlns="http://www.w3.org/2000/svg" viewBox="-2.4093566894531193 10.387493896484386 504.81871337890624 129.22501220703123" style="background: rgba(0, 0, 0, 0);" preserveAspectRatio="xMidYMid"><defs><filter id="editing-hole" x="-100%" y="-100%" width="300%" height="300%"><feFlood flood-color="#000" result="black"></feFlood><feMorphology operator="dilate" radius="2" in="SourceGraphic" result="erode"></feMorphology><feGaussianBlur in="erode" stdDeviation="4" result="blur"></feGaussianBlur><feOffset in="blur" dx="2" dy="2" result="offset"></feOffset><feComposite operator="atop" in="offset" in2="black" result="merge"></feComposite><feComposite operator="in" in="merge" in2="SourceGraphic" result="inner-shadow"></feComposite></filter></defs><g filter="url(#editing-hole)"><g transform="translate(76.20780324935913, 112.0374984741211)"><path d="M76.10-45.18L76.10-45.18L73.34-44.67L73.34-44.67Q68.42-36.16 63.87-21.76L63.87-21.76L63.87-21.76Q62.14-16.32 59.01-9.25L59.01-9.25L59.01-9.25Q55.87-2.18 52.03 3.84L52.03 3.84L52.03 3.84Q46.85 11.90 38.24 17.12L38.24 17.12L38.24 17.12Q29.63 22.34 22.53 23.30L22.53 23.30L22.53 23.30Q19.26 23.74 15.10 23.74L15.10 23.74L15.10 23.74Q10.94 23.74 6.53 22.27L6.53 22.27L6.53 22.27Q-0.38 19.97-2.94 14.72L-2.94 14.72L-2.94 14.72Q-4.10 12.29-4.10 9.02L-4.10 9.02L-4.10 9.02Q-4.10 5.76-2.37 1.34L-2.37 1.34L-2.37 1.34Q-1.15-1.60 1.92-4.16L1.92-4.16L1.92-4.16Q4.99-6.72 6.72-6.78L6.72-6.78L6.72-6.78Q7.49-6.85 7.49-6.53L7.49-6.53L7.49-6.53Q7.42-6.27 6.66-5.89L6.66-5.89L6.66-5.89Q4.61-5.06 2.11-2.24L2.11-2.24L2.11-2.24Q-0.38 0.58-1.18 3.42L-1.18 3.42L-1.18 3.42Q-1.98 6.27-1.98 7.81L-1.98 7.81L-1.98 7.81Q-1.98 12.48 0.51 15.36L0.51 15.36L0.51 15.36Q2.24 17.28 4.80 18.82L4.80 18.82L4.80 18.82Q7.36 20.35 10.30 20.93L10.30 20.93L10.30 20.93Q14.66 21.76 17.22 21.76L17.22 21.76L17.22 21.76Q19.78 21.76 21.76 21.25L21.76 21.25L21.76 21.25Q26.11 20.29 30.18 18.05L30.18 18.05L30.18 18.05Q34.24 15.81 37.38 13.15L37.38 13.15L37.38 13.15Q40.51 10.50 43.62 6.59L43.62 6.59L43.62 6.59Q46.72 2.69 48.83-0.51L48.83-0.51L48.83-0.51Q50.94-3.71 53.31-8.19L53.31-8.19L53.31-8.19Q57.15-15.49 61.18-24.96L61.18-24.96L61.18-24.96Q66.24-36.22 71.42-44.42L71.42-44.42L71.42-44.42Q62.53-42.94 53.31-38.02L53.31-38.02L53.31-38.02Q48.64-35.52 45.31-31.68L45.31-31.68L45.31-31.68Q41.02-26.82 41.02-21.25L41.02-21.25L41.02-21.25Q41.02-18.24 42.46-16.58L42.46-16.58L42.46-16.58Q43.90-14.91 45.50-14.91L45.50-14.91L45.50-14.91Q47.10-14.91 49.02-15.62L49.02-15.62L49.02-15.62Q50.94-16.32 52.48-18.05L52.48-18.05L52.48-18.05Q54.91-20.86 54.91-24.51L54.91-24.51L54.91-24.51Q54.91-26.05 54.46-26.56L54.46-26.56L54.46-26.56Q53.70-27.07 54.34-27.52L54.34-27.52L54.34-27.52Q55.04-27.90 55.81-27.07L55.81-27.07L55.81-27.07Q56.45-25.66 56.45-23.78L56.45-23.78L56.45-23.78Q56.45-21.89 55.04-19.46L55.04-19.46L55.04-19.46Q52.67-15.42 48.51-13.95L48.51-13.95L48.51-13.95Q46.59-13.31 44.86-13.31L44.86-13.31L44.86-13.31Q41.98-13.31 39.68-15.17L39.68-15.17L39.68-15.17Q36.74-17.60 36.74-21.70L36.74-21.70L36.74-21.70Q36.74-26.88 40.45-31.62L40.45-31.62L40.45-31.62Q43.26-35.26 47.07-37.63L47.07-37.63L47.07-37.63Q50.88-40 55.68-41.86L55.68-41.86L55.68-41.86Q63.42-44.86 72.51-46.08L72.51-46.08L72.51-46.08Q73.28-47.36 74.82-49.09L74.82-49.09L74.82-49.09Q76.35-50.82 77.38-51.14L77.38-51.14L77.38-51.14Q78.40-51.46 79.04-51.46L79.04-51.46L79.04-51.46Q81.28-51.46 81.28-49.54L81.28-49.54L81.28-49.54Q81.22-47.81 79.87-46.88L79.87-46.88L79.87-46.88Q78.53-45.95 76.10-45.18ZM78.08-49.41L78.08-49.41L78.08-49.41Q77.95-49.41 77.79-49.34L77.79-49.34L77.79-49.34Q77.63-49.28 77.34-49.06L77.34-49.06L77.34-49.06Q77.06-48.83 76.80-48.64L76.80-48.64L76.80-48.64Q76.54-48.45 76.19-48.06L76.19-48.06L76.19-48.06Q75.84-47.68 75.62-47.46L75.62-47.46L75.62-47.46Q75.39-47.23 75.01-46.82L75.01-46.82L75.01-46.82Q74.62-46.40 74.50-46.27L74.50-46.27L74.50-46.27Q78.91-47.04 78.85-48.64L78.85-48.64L78.85-48.64Q78.72-49.41 78.08-49.41ZM63.23-3.71L63.23-3.71L63.23-3.71Q63.23-6.46 65.60-10.37L65.60-10.37L65.60-10.37Q64.58-10.37 65.02-11.39L65.02-11.39L66.18-13.63L66.18-13.63Q68.35-17.79 69.76-20.67L69.76-20.67L69.76-20.67Q70.40-22.02 72.26-22.02L72.26-22.02L76.16-22.02L76.16-22.02Q73.86-20.35 71.52-15.58L71.52-15.58L71.52-15.58Q69.18-10.82 67.90-8.10L67.90-8.10L67.90-8.10Q66.62-5.38 66.62-3.97L66.62-3.97L66.62-3.97Q66.62-2.56 67.10-1.98L67.10-1.98L67.10-1.98Q67.58-1.41 68.42-1.41L68.42-1.41L68.42-1.41Q69.63-1.41 71.81-3.97L71.81-3.97L71.81-3.97Q75.20-7.94 81.34-20.67L81.34-20.67L81.34-20.67Q82.05-22.02 83.84-22.02L83.84-22.02L87.30-22.02L87.30-22.02Q85.89-20.93 85.09-19.78L85.09-19.78L85.09-19.78Q84.29-18.62 82.88-15.68L82.88-15.68L82.88-15.68Q79.04-8 78.59-5.50L78.59-5.50L78.59-5.50Q78.40-4.61 78.40-3.84L78.40-3.84L78.40-3.84Q78.40-1.79 79.81-1.66L79.81-1.66L79.81-1.66Q83.26-1.66 88.32-12.35L88.32-12.35L88.32-12.35Q88.70-13.25 89.09-13.06L89.09-13.06L89.09-13.06Q89.47-12.86 89.47-12.54L89.47-12.54L89.47-12.54Q89.47-12.22 88.90-11.07L88.90-11.07L88.90-11.07Q88.32-9.92 87.78-8.83L87.78-8.83L87.78-8.83Q87.23-7.74 86.11-5.86L86.11-5.86L86.11-5.86Q84.99-3.97 84.03-2.88L84.03-2.88L84.03-2.88Q81.54-0.06 79.14-0.06L79.14-0.06L79.14-0.06Q76.74-0.06 75.84-2.18L75.84-2.18L75.84-2.18Q75.46-3.14 75.46-4.61L75.46-4.61L75.46-4.61Q75.46-6.08 76.10-8.26L76.10-8.26L76.10-8.26Q71.42-0.06 67.46-0.06L67.46-0.06L67.46-0.06Q64-0.06 63.42-2.94L63.42-2.94L63.42-2.94Q63.23-3.26 63.23-3.71ZM91.84-12.35L91.84-12.35Q91.78-12.10 91.26-10.59L91.26-10.59L91.26-10.59Q90.75-9.09 90.40-7.71L90.40-7.71L90.40-7.71Q90.05-6.34 90.05-4.96L90.05-4.96L90.05-4.96Q90.05-3.58 90.69-2.40L90.69-2.40L90.69-2.40Q91.33-1.22 92.74-1.22L92.74-1.22L92.74-1.22Q95.04-1.22 97.22-4.32L97.22-4.32L97.22-4.32Q99.39-7.42 101.82-12.22L101.82-12.22L101.82-12.22Q102.34-13.12 102.78-12.93L102.78-12.93L102.78-12.93Q103.10-12.67 102.91-12.26L102.91-12.26L102.91-12.26Q102.72-11.84 102.11-10.46L102.11-10.46L102.11-10.46Q101.50-9.09 101.22-8.54L101.22-8.54L101.22-8.54Q100.93-8 100.19-6.62L100.19-6.62L100.19-6.62Q99.46-5.25 98.91-4.58L98.91-4.58L98.91-4.58Q98.37-3.90 97.44-2.85L97.44-2.85L97.44-2.85Q96.51-1.79 95.68-1.28L95.68-1.28L95.68-1.28Q93.44 0.13 91.46 0.13L91.46 0.13L91.46 0.13Q89.47 0.13 88.38-0.74L88.38-0.74L88.38-0.74Q87.30-1.60 87.07-2.59L87.07-2.59L87.07-2.59Q86.85-3.58 86.85-4.35L86.85-4.35L86.85-4.35Q86.85-5.12 86.91-6.34L86.91-6.34L86.91-6.34Q87.10-8.38 87.71-10.30L87.71-10.30L87.71-10.30Q88.32-12.22 88.38-12.48L88.38-12.48L88.38-12.48Q89.86-17.79 92.58-24.06L92.58-24.06L92.58-24.06Q95.30-30.34 97.18-33.50L97.18-33.50L97.18-33.50Q99.07-36.67 100.16-37.82L100.16-37.82L100.16-37.82Q102.34-40.13 104.45-40.13L104.45-40.13L104.45-40.13Q105.92-40.13 106.43-38.02L106.43-38.02L106.43-38.02Q106.50-37.63 106.50-37.06L106.50-37.06L106.50-37.06Q106.50-34.88 104.96-31.55L104.96-31.55L104.96-31.55Q99.46-19.33 91.84-12.35L91.84-12.35ZM92.35-14.40L92.35-14.40Q95.62-17.73 98.82-22.78L98.82-22.78L98.82-22.78Q102.02-27.84 103.52-31.39L103.52-31.39L103.52-31.39Q105.02-34.94 105.02-36.22L105.02-36.22L105.02-36.22Q105.02-37.50 104.58-37.50L104.58-37.50L104.58-37.50Q103.94-37.50 102.14-34.98L102.14-34.98L102.14-34.98Q100.35-32.45 97.31-25.89L97.31-25.89L97.31-25.89Q94.27-19.33 92.35-14.40L92.35-14.40ZM110.66-24.90L110.66-24.90L110.66-24.90Q109.76-24.13 108.67-24.13L108.67-24.13L108.67-24.13Q107.58-24.13 106.94-24.90L106.94-24.90L106.94-24.90Q106.30-25.66 106.43-26.75L106.43-26.75L106.43-26.75Q106.62-27.84 107.52-28.61L107.52-28.61L107.52-28.61Q108.42-29.38 109.50-29.38L109.50-29.38L109.50-29.38Q110.59-29.38 111.26-28.61L111.26-28.61L111.26-28.61Q111.94-27.84 111.74-26.75L111.74-26.75L111.74-26.75Q111.55-25.66 110.66-24.90ZM104.38-1.41L104.38-1.41L104.38-1.41Q105.60-1.41 106.94-2.62L106.94-2.62L106.94-2.62Q109.31-4.99 112.96-12.29L112.96-12.29L112.96-12.29Q113.41-13.25 113.86-12.86L113.86-12.86L113.86-12.86Q113.98-12.74 113.98-12.45L113.98-12.45L113.98-12.45Q113.98-12.16 113.47-11.04L113.47-11.04L113.47-11.04Q112.96-9.92 112.54-9.02L112.54-9.02L112.54-9.02Q112.13-8.13 110.94-6.11L110.94-6.11L110.94-6.11Q109.76-4.10 108.80-3.01L108.80-3.01L108.80-3.01Q106.18 0 103.84 0L103.84 0L103.84 0Q101.50 0 100.48-1.41L100.48-1.41L100.48-1.41Q99.46-2.82 99.46-4.54L99.46-4.54L99.46-4.54Q99.46-6.27 100.29-8.32L100.29-8.32L104.38-18.75L104.38-18.75Q104.51-19.14 104.51-19.78L104.51-19.78L104.51-19.78Q104.51-20.42 103.74-21.44L103.74-21.44L107.26-21.50L107.26-21.50Q108.74-21.50 108.99-20.96L108.99-20.96L108.99-20.96Q109.25-20.42 108.61-19.26L108.61-19.26L103.49-7.30L103.49-7.30Q102.40-4.93 102.40-3.26L102.40-3.26L102.40-3.26Q102.40-1.41 104.38-1.41ZM115.84-9.86L115.84-9.86L115.84-9.86Q114.94-7.68 114.94-4.99L114.94-4.99L114.94-4.99Q114.94-3.20 115.74-2.14L115.74-2.14L115.74-2.14Q116.54-1.09 118.02-1.09L118.02-1.09L118.02-1.09Q123.84-1.09 128.58-12.03L128.58-12.03L128.58-12.03Q129.02-13.06 129.66-12.93L129.66-12.93L129.66-12.93Q129.92-12.86 129.92-12.61L129.92-12.61L129.92-12.61Q129.92-12.35 128.48-9.25L128.48-9.25L128.48-9.25Q127.04-6.14 125.57-4.22L125.57-4.22L125.57-4.22Q122.30 0.26 117.50 0.26L117.50 0.26L117.50 0.26Q114.94 0.26 113.15-1.41L113.15-1.41L113.15-1.41Q111.36-3.07 111.36-5.95L111.36-5.95L111.36-5.95Q111.36-8.83 112.74-12.06L112.74-12.06L112.74-12.06Q114.11-15.30 116.48-18.08L116.48-18.08L116.48-18.08Q118.85-20.86 121.92-22.14L121.92-22.14L121.92-22.14Q123.39-22.78 124.74-22.78L124.74-22.78L124.74-22.78Q126.08-22.78 127.23-22.02L127.23-22.02L127.23-22.02Q128.32-21.12 128.32-20.03L128.32-20.03L128.32-20.03Q128.32-16.19 123.71-12.67L123.71-12.67L123.71-12.67Q122.30-11.58 119.74-10.72L119.74-10.72L119.74-10.72Q117.18-9.86 115.84-9.86ZM126.59-20.10L126.59-20.10L126.59-20.10Q126.59-21.38 125.57-21.38L125.57-21.38L125.57-21.38Q123.78-21.38 120.13-16.96L120.13-16.96L120.13-16.96Q117.95-14.27 116.29-10.94L116.29-10.94L116.29-10.94Q117.38-10.94 119.46-11.71L119.46-11.71L119.46-11.71Q121.54-12.48 123.07-13.76L123.07-13.76L123.07-13.76Q126.59-16.77 126.59-20.10ZM148.10-20.99L148.10-20.99L148.10-20.99Q140.22-7.17 140.22-2.94L140.22-2.94L140.22-2.94Q140.22-1.28 141.44-1.28L141.44-1.28L141.44-1.28Q144.70-1.28 150.21-12.35L150.21-12.35L150.21-12.35Q150.59-13.25 150.98-13.06L150.98-13.06L150.98-13.06Q151.36-12.86 151.36-12.54L151.36-12.54L151.36-12.54Q151.36-12.22 151.10-11.78L151.10-11.78L151.10-11.78Q147.71-4.93 145.38-2.34L145.38-2.34L145.38-2.34Q143.04 0.26 140.70 0.26L140.70 0.26L140.70 0.26Q138.37 0.26 137.15-1.54L137.15-1.54L137.15-1.54Q136.51-2.37 136.51-3.81L136.51-3.81L136.51-3.81Q136.51-5.25 137.15-7.30L137.15-7.30L137.15-7.30Q137.79-9.34 140.67-13.95L140.67-13.95L140.67-13.95Q141.38-15.10 141.38-15.78L141.38-15.78L141.38-15.78Q141.38-16.45 140.29-16.45L140.29-16.45L140.29-16.45Q139.20-16.45 136.13-13.57L136.13-13.57L136.13-13.57Q131.52-9.34 127.23-0.90L127.23-0.90L127.23-0.90Q126.85-0.26 126.37-0.10L126.37-0.10L126.37-0.10Q125.89 0.06 124.48 0.13L124.48 0.13L124.48 0.13Q123.07 0.19 122.62 0.45L122.62 0.45L122.62 0.45Q123.65-1.60 126.66-7.94L126.66-7.94L126.66-7.94Q132.03-19.14 133.70-20.74L133.70-20.74L133.70-20.74Q134.46-21.50 135.81-21.50L135.81-21.50L135.81-21.50Q136.06-21.50 137.12-21.31L137.12-21.31L137.12-21.31Q138.18-21.12 138.69-21.25L138.69-21.25L138.69-21.25Q136.32-19.97 130.94-9.22L130.94-9.22L130.94-9.22Q133.95-12.93 136.42-15.14L136.42-15.14L136.42-15.14Q138.88-17.34 142.34-19.23L142.34-19.23L142.34-19.23Q145.79-21.12 147.39-21.12L147.39-21.12L147.39-21.12Q147.78-21.12 148.10-20.99ZM205.63-28.48L205.63-28.48L205.63-28.48Q207.10-28.48 207.10-26.62L207.10-26.62L207.10-26.62Q207.10-24.64 205.50-22.91L205.50-22.91L205.50-22.91Q202.69-19.78 200.32-15.04L200.32-15.04L200.32-15.04Q196.74-7.87 196.74-2.11L196.74-2.11L196.74-2.11Q196.74 0.13 197.54 1.15L197.54 1.15L197.54 1.15Q198.34 2.18 199.36 2.18L199.36 2.18L199.36 2.18Q202.43 2.18 206.53-2.82L206.53-2.82L206.53-2.82Q210.18-7.49 212.10-11.90L212.10-11.90L212.10-11.90Q212.61-12.93 213.12-12.80L213.12-12.80L213.12-12.80Q213.63-12.67 213.18-11.65L213.18-11.65L213.18-11.65Q210.56-5.82 207.23-1.41L207.23-1.41L207.23-1.41Q205.50 0.96 202.94 2.53L202.94 2.53L202.94 2.53Q200.38 4.10 197.86 4.10L197.86 4.10L197.86 4.10Q195.33 4.10 194.05 2.08L194.05 2.08L194.05 2.08Q192.77 0.06 192.77-2.69L192.77-2.69L192.77-2.69Q192.77-5.44 193.44-8.13L193.44-8.13L193.44-8.13Q194.11-10.82 195.20-12.29L195.20-12.29L195.20-12.29Q188.74-4.54 181.44 0.13L181.44 0.13L181.44 0.13Q177.60 2.50 172.93 2.94L172.93 2.94L172.93 2.94Q172.48 3.01 171.42 3.01L171.42 3.01L171.42 3.01Q170.37 3.01 168.90 2.24L168.90 2.24L168.90 2.24Q164.29 0.32 164.29-7.14L164.29-7.14L164.29-7.14Q164.29-14.59 169.15-23.30L169.15-23.30L169.15-23.30Q171.71-27.90 174.78-31.42L174.78-31.42L174.78-31.42Q170.50-33.47 168.38-35.84L168.38-35.84L168.38-35.84Q166.85-37.57 166.85-40L166.85-40L166.85-40Q166.85-42.43 167.81-43.07L167.81-43.07L167.81-43.07Q168.45-43.90 168.96-43.39L168.96-43.39L168.96-43.39Q169.34-42.82 168.99-41.98L168.99-41.98L168.99-41.98Q168.64-41.15 168.64-40.38L168.64-40.38L168.64-40.38Q168.64-38.66 170.50-36.54L170.50-36.54L170.50-36.54Q172.35-34.43 175.94-32.77L175.94-32.77L175.94-32.77Q190.98-49.47 207.17-49.47L207.17-49.47L207.17-49.47Q212.22-49.47 215.20-47.20L215.20-47.20L215.20-47.20Q218.18-44.93 218.18-41.34L218.18-41.34L218.18-41.34Q218.18-37.44 213.82-33.79L213.82-33.79L213.82-33.79Q211.65-31.87 207.62-30.46L207.62-30.46L207.62-30.46Q201.47-28.29 192.99-28.29L192.99-28.29L192.99-28.29Q184.51-28.29 178.94-30.08L178.94-30.08L178.94-30.08Q172.48-20.93 170.05-14.88L170.05-14.88L170.05-14.88Q167.62-8.83 167.62-5.50L167.62-5.50L167.62-5.50Q167.62-4.80 167.68-4.22L167.68-4.22L167.68-4.22Q168.45 1.09 173.06 1.09L173.06 1.09L173.06 1.09Q178.24 1.09 185.09-4.54L185.09-4.54L185.09-4.54Q189.95-8.64 194.62-14.27L194.62-14.27L194.62-14.27Q199.30-19.90 201.57-24.19L201.57-24.19L201.57-24.19Q203.84-28.48 205.63-28.48ZM215.55-42.11L215.55-42.11L215.55-42.11Q215.55-44.86 213.28-46.34L213.28-46.34L213.28-46.34Q211.01-47.81 207.04-47.81L207.04-47.81L207.04-47.81Q203.07-47.81 199.14-46.53L199.14-46.53L199.14-46.53Q195.20-45.25 191.78-42.75L191.78-42.75L191.78-42.75Q188.35-40.26 185.70-37.63L185.70-37.63L185.70-37.63Q183.04-35.01 179.97-31.36L179.97-31.36L179.97-31.36Q184.77-29.82 191.74-29.82L191.74-29.82L191.74-29.82Q204.86-29.82 210.88-34.05L210.88-34.05L210.88-34.05Q215.55-37.31 215.55-42.11ZM217.79-1.22L217.79-1.22L217.79-1.22Q218.62-1.09 218.94-1.09L218.94-1.09L218.94-1.09Q221.50-1.09 224-4.10L224-4.10L224-4.10Q225.34-5.76 228.80-12.48L228.80-12.48L228.80-12.48Q228.93-12.80 229.25-12.80L229.25-12.80L229.25-12.80Q229.82-12.86 229.82-12.35L229.82-12.35L229.82-12.35Q229.82-12.22 229.54-11.62L229.54-11.62L229.54-11.62Q229.25-11.01 228.99-10.40L228.99-10.40L228.99-10.40Q228.74-9.79 228.16-8.64L228.16-8.64L228.16-8.64Q227.58-7.49 227.17-6.78L227.17-6.78L227.17-6.78Q226.75-6.08 226.11-5.06L226.11-5.06L226.11-5.06Q225.47-4.03 224.83-3.46L224.83-3.46L223.49-2.05L223.49-2.05Q222.40-0.96 220.93-0.51L220.93-0.51L220.93-0.51Q218.56 0.26 216.32-0.38L216.32-0.38L216.32-0.38Q214.85 0.26 213.70 0.26L213.70 0.26L213.70 0.26Q209.15 0.26 208.19-3.33L208.19-3.33L208.19-3.33Q208-4.16 208-5.34L208-5.34L208-5.34Q208-6.53 208.80-7.62L208.80-7.62L208.80-7.62Q209.60-8.70 210.50-8.77L210.50-8.77L210.50-8.77Q213.76-14.98 216.06-19.97L216.06-19.97L216.06-19.97Q218.62-25.41 222.02-25.41L222.02-25.41L222.02-25.41Q222.91-25.41 223.78-24.99L223.78-24.99L223.78-24.99Q224.64-24.58 224.42-24.06L224.42-24.06L224.42-24.06Q224.19-23.55 223.49-23.87L223.49-23.87L223.49-23.87Q222.78-24.19 222.27-24.19L222.27-24.19L222.27-24.19Q221.76-24.19 221.38-24L221.38-24L221.38-24Q219.20-22.98 219.20-19.58L219.20-19.58L219.20-19.58Q219.20-17.79 219.71-16.64L219.71-16.64L219.71-16.64Q220.22-15.49 220.86-14.14L220.86-14.14L220.86-14.14Q222.34-10.82 222.34-8.70L222.34-8.70L222.34-8.70Q222.34-6.59 220.99-4.54L220.99-4.54L220.99-4.54Q219.65-2.50 217.79-1.22ZM215.62-1.66L215.62-1.66L215.62-1.66Q218.43-3.84 218.43-8.70L218.43-8.70L218.43-8.70Q218.43-10.69 217.98-14.14L217.98-14.14L217.98-14.14Q217.54-17.60 217.54-18.82L217.54-18.82L217.54-18.82Q217.54-20.03 217.60-20.48L217.60-20.48L217.60-20.48Q212.74-10.75 211.58-8.64L211.58-8.64L211.58-8.64Q212.93-8.64 212.93-6.72L212.93-6.72L212.93-6.72Q212.93-2.94 215.62-1.66ZM210.82-3.39L210.82-3.39L210.82-3.39Q210.82-3.01 210.88-2.56L210.88-2.56L210.88-2.56Q211.39-0.83 213.25-0.83L213.25-0.83L213.25-0.83Q214.02-0.83 214.53-1.09L214.53-1.09L214.53-1.09Q212.16-2.56 211.97-5.89L211.97-5.89L211.97-5.89Q210.82-4.74 210.82-3.39ZM234.18-1.22L234.18-1.22L234.18-1.22Q235.01-1.09 235.33-1.09L235.33-1.09L235.33-1.09Q237.89-1.09 240.38-4.10L240.38-4.10L240.38-4.10Q241.73-5.76 245.18-12.48L245.18-12.48L245.18-12.48Q245.31-12.80 245.63-12.80L245.63-12.80L245.63-12.80Q246.21-12.86 246.21-12.35L246.21-12.35L246.21-12.35Q246.21-12.22 245.92-11.62L245.92-11.62L245.92-11.62Q245.63-11.01 245.38-10.40L245.38-10.40L245.38-10.40Q245.12-9.79 244.54-8.64L244.54-8.64L244.54-8.64Q243.97-7.49 243.55-6.78L243.55-6.78L243.55-6.78Q243.14-6.08 242.50-5.06L242.50-5.06L242.50-5.06Q241.86-4.03 241.22-3.46L241.22-3.46L239.87-2.05L239.87-2.05Q238.78-0.96 237.31-0.51L237.31-0.51L237.31-0.51Q234.94 0.26 232.70-0.38L232.70-0.38L232.70-0.38Q231.23 0.26 230.08 0.26L230.08 0.26L230.08 0.26Q225.54 0.26 224.58-3.33L224.58-3.33L224.58-3.33Q224.38-4.16 224.38-5.34L224.38-5.34L224.38-5.34Q224.38-6.53 225.18-7.62L225.18-7.62L225.18-7.62Q225.98-8.70 226.88-8.77L226.88-8.77L226.88-8.77Q230.14-14.98 232.45-19.97L232.45-19.97L232.45-19.97Q235.01-25.41 238.40-25.41L238.40-25.41L238.40-25.41Q239.30-25.41 240.16-24.99L240.16-24.99L240.16-24.99Q241.02-24.58 240.80-24.06L240.80-24.06L240.80-24.06Q240.58-23.55 239.87-23.87L239.87-23.87L239.87-23.87Q239.17-24.19 238.66-24.19L238.66-24.19L238.66-24.19Q238.14-24.19 237.76-24L237.76-24L237.76-24Q235.58-22.98 235.58-19.58L235.58-19.58L235.58-19.58Q235.58-17.79 236.10-16.64L236.10-16.64L236.10-16.64Q236.61-15.49 237.25-14.14L237.25-14.14L237.25-14.14Q238.72-10.82 238.72-8.70L238.72-8.70L238.72-8.70Q238.72-6.59 237.38-4.54L237.38-4.54L237.38-4.54Q236.03-2.50 234.18-1.22ZM232.00-1.66L232.00-1.66L232.00-1.66Q234.82-3.84 234.82-8.70L234.82-8.70L234.82-8.70Q234.82-10.69 234.37-14.14L234.37-14.14L234.37-14.14Q233.92-17.60 233.92-18.82L233.92-18.82L233.92-18.82Q233.92-20.03 233.98-20.48L233.98-20.48L233.98-20.48Q229.12-10.75 227.97-8.64L227.97-8.64L227.97-8.64Q229.31-8.64 229.31-6.72L229.31-6.72L229.31-6.72Q229.31-2.94 232.00-1.66ZM227.20-3.39L227.20-3.39L227.20-3.39Q227.20-3.01 227.26-2.56L227.26-2.56L227.26-2.56Q227.78-0.83 229.63-0.83L229.63-0.83L229.63-0.83Q230.40-0.83 230.91-1.09L230.91-1.09L230.91-1.09Q228.54-2.56 228.35-5.89L228.35-5.89L228.35-5.89Q227.20-4.74 227.20-3.39ZM256.77-22.40L256.77-22.40L256.77-22.40Q261.44-22.40 261.44-16.51L261.44-16.51L261.44-16.51Q261.44-13.82 260.03-10.75L260.03-10.75L260.03-10.75Q258.24-6.59 254.66-3.20L254.66-3.20L254.66-3.20Q255.49-1.60 257.66-1.60L257.66-1.60L257.66-1.60Q259.39-1.60 260.93-3.33L260.93-3.33L260.93-3.33Q262.85-5.31 263.68-6.82L263.68-6.82L263.68-6.82Q264.51-8.32 264.90-9.02L264.90-9.02L264.90-9.02Q265.28-9.73 265.89-11.04L265.89-11.04L265.89-11.04Q266.50-12.35 266.62-12.64L266.62-12.64L266.62-12.64Q266.75-12.93 267.07-12.93L267.07-12.93L267.07-12.93Q267.71-12.99 267.71-12.48L267.71-12.48L267.71-12.48Q267.71-12.29 267.58-12.03L267.58-12.03L267.20-11.14L267.20-11.14Q266.82-10.24 266.62-9.86L266.62-9.86L266.62-9.86Q266.43-9.47 265.95-8.48L265.95-8.48L265.95-8.48Q265.47-7.49 265.12-6.91L265.12-6.91L265.12-6.91Q264.77-6.34 264.16-5.38L264.16-5.38L264.16-5.38Q263.55-4.42 263.07-3.84L263.07-3.84L263.07-3.84Q262.59-3.26 261.89-2.56L261.89-2.56L261.89-2.56Q261.18-1.86 260.54-1.47L260.54-1.47L260.54-1.47Q258.94-0.51 257.54-0.51L257.54-0.51L257.54-0.51Q254.91-0.51 253.44-2.18L253.44-2.18L253.44-2.18Q250.50 0 248.00 0L248.00 0L248.00 0Q243.33 0 243.33-5.89L243.33-5.89L243.33-5.89Q243.33-8.58 244.74-11.65L244.74-11.65L244.74-11.65Q246.66-16.13 250.14-19.26L250.14-19.26L250.14-19.26Q253.63-22.40 256.77-22.40ZM257.47-20.42L257.47-20.42L257.47-20.42Q255.74-20.42 253.38-18.11L253.38-18.11L253.38-18.11Q251.01-15.81 249.15-11.84L249.15-11.84L249.15-11.84Q246.91-7.23 246.91-4.29L246.91-4.29L246.91-4.29Q246.91-1.34 249.15-1.34L249.15-1.34L249.15-1.34Q250.75-1.34 252.74-3.07L252.74-3.07L252.74-3.07Q251.71-4.54 251.71-6.21L251.71-6.21L251.71-6.21Q251.84-8.96 253.95-8.96L253.95-8.96L253.95-8.96Q254.78-8.96 255.33-8.38L255.33-8.38L255.33-8.38Q255.87-7.81 255.87-7.33L255.87-7.33L255.87-7.33Q255.87-6.85 255.74-6.34L255.74-6.34L255.74-6.34Q256.83-7.94 258.24-10.88L258.24-10.88L258.24-10.88Q259.84-14.14 259.84-17.28L259.84-17.28L259.84-17.28Q259.84-20.42 257.47-20.42ZM264.32-3.71L264.32-3.71L264.32-3.71Q264.32-6.46 266.69-10.37L266.69-10.37L266.69-10.37Q265.66-10.37 266.11-11.39L266.11-11.39L267.26-13.63L267.26-13.63Q269.44-17.79 270.85-20.67L270.85-20.67L270.85-20.67Q271.49-22.02 273.34-22.02L273.34-22.02L277.25-22.02L277.25-22.02Q274.94-20.35 272.61-15.58L272.61-15.58L272.61-15.58Q270.27-10.82 268.99-8.10L268.99-8.10L268.99-8.10Q267.71-5.38 267.71-3.97L267.71-3.97L267.71-3.97Q267.71-2.56 268.19-1.98L268.19-1.98L268.19-1.98Q268.67-1.41 269.50-1.41L269.50-1.41L269.50-1.41Q270.72-1.41 272.90-3.97L272.90-3.97L272.90-3.97Q276.29-7.94 282.43-20.67L282.43-20.67L282.43-20.67Q283.14-22.02 284.93-22.02L284.93-22.02L288.38-22.02L288.38-22.02Q286.98-20.93 286.18-19.78L286.18-19.78L286.18-19.78Q285.38-18.62 283.97-15.68L283.97-15.68L283.97-15.68Q280.13-8 279.68-5.50L279.68-5.50L279.68-5.50Q279.49-4.61 279.49-3.84L279.49-3.84L279.49-3.84Q279.49-1.79 280.90-1.66L280.90-1.66L280.90-1.66Q284.35-1.66 289.41-12.35L289.41-12.35L289.41-12.35Q289.79-13.25 290.18-13.06L290.18-13.06L290.18-13.06Q290.56-12.86 290.56-12.54L290.56-12.54L290.56-12.54Q290.56-12.22 289.98-11.07L289.98-11.07L289.98-11.07Q289.41-9.92 288.86-8.83L288.86-8.83L288.86-8.83Q288.32-7.74 287.20-5.86L287.20-5.86L287.20-5.86Q286.08-3.97 285.12-2.88L285.12-2.88L285.12-2.88Q282.62-0.06 280.22-0.06L280.22-0.06L280.22-0.06Q277.82-0.06 276.93-2.18L276.93-2.18L276.93-2.18Q276.54-3.14 276.54-4.61L276.54-4.61L276.54-4.61Q276.54-6.08 277.18-8.26L277.18-8.26L277.18-8.26Q272.51-0.06 268.54-0.06L268.54-0.06L268.54-0.06Q265.09-0.06 264.51-2.94L264.51-2.94L264.51-2.94Q264.32-3.26 264.32-3.71ZM292.93-12.35L292.93-12.35Q292.86-12.10 292.35-10.59L292.35-10.59L292.35-10.59Q291.84-9.09 291.49-7.71L291.49-7.71L291.49-7.71Q291.14-6.34 291.14-4.96L291.14-4.96L291.14-4.96Q291.14-3.58 291.78-2.40L291.78-2.40L291.78-2.40Q292.42-1.22 293.82-1.22L293.82-1.22L293.82-1.22Q296.13-1.22 298.30-4.32L298.30-4.32L298.30-4.32Q300.48-7.42 302.91-12.22L302.91-12.22L302.91-12.22Q303.42-13.12 303.87-12.93L303.87-12.93L303.87-12.93Q304.19-12.67 304.00-12.26L304.00-12.26L304.00-12.26Q303.81-11.84 303.20-10.46L303.20-10.46L303.20-10.46Q302.59-9.09 302.30-8.54L302.30-8.54L302.30-8.54Q302.02-8 301.28-6.62L301.28-6.62L301.28-6.62Q300.54-5.25 300.00-4.58L300.00-4.58L300.00-4.58Q299.46-3.90 298.53-2.85L298.53-2.85L298.53-2.85Q297.60-1.79 296.77-1.28L296.77-1.28L296.77-1.28Q294.53 0.13 292.54 0.13L292.54 0.13L292.54 0.13Q290.56 0.13 289.47-0.74L289.47-0.74L289.47-0.74Q288.38-1.60 288.16-2.59L288.16-2.59L288.16-2.59Q287.94-3.58 287.94-4.35L287.94-4.35L287.94-4.35Q287.94-5.12 288.00-6.34L288.00-6.34L288.00-6.34Q288.19-8.38 288.80-10.30L288.80-10.30L288.80-10.30Q289.41-12.22 289.47-12.48L289.47-12.48L289.47-12.48Q290.94-17.79 293.66-24.06L293.66-24.06L293.66-24.06Q296.38-30.34 298.27-33.50L298.27-33.50L298.27-33.50Q300.16-36.67 301.25-37.82L301.25-37.82L301.25-37.82Q303.42-40.13 305.54-40.13L305.54-40.13L305.54-40.13Q307.01-40.13 307.52-38.02L307.52-38.02L307.52-38.02Q307.58-37.63 307.58-37.06L307.58-37.06L307.58-37.06Q307.58-34.88 306.05-31.55L306.05-31.55L306.05-31.55Q300.54-19.33 292.93-12.35L292.93-12.35ZM293.44-14.40L293.44-14.40Q296.70-17.73 299.90-22.78L299.90-22.78L299.90-22.78Q303.10-27.84 304.61-31.39L304.61-31.39L304.61-31.39Q306.11-34.94 306.11-36.22L306.11-36.22L306.11-36.22Q306.11-37.50 305.66-37.50L305.66-37.50L305.66-37.50Q305.02-37.50 303.23-34.98L303.23-34.98L303.23-34.98Q301.44-32.45 298.40-25.89L298.40-25.89L298.40-25.89Q295.36-19.33 293.44-14.40L293.44-14.40ZM311.74-24.90L311.74-24.90L311.74-24.90Q310.85-24.13 309.76-24.13L309.76-24.13L309.76-24.13Q308.67-24.13 308.03-24.90L308.03-24.90L308.03-24.90Q307.39-25.66 307.52-26.75L307.52-26.75L307.52-26.75Q307.71-27.84 308.61-28.61L308.61-28.61L308.61-28.61Q309.50-29.38 310.59-29.38L310.59-29.38L310.59-29.38Q311.68-29.38 312.35-28.61L312.35-28.61L312.35-28.61Q313.02-27.84 312.83-26.75L312.83-26.75L312.83-26.75Q312.64-25.66 311.74-24.90ZM305.47-1.41L305.47-1.41L305.47-1.41Q306.69-1.41 308.03-2.62L308.03-2.62L308.03-2.62Q310.40-4.99 314.05-12.29L314.05-12.29L314.05-12.29Q314.50-13.25 314.94-12.86L314.94-12.86L314.94-12.86Q315.07-12.74 315.07-12.45L315.07-12.45L315.07-12.45Q315.07-12.16 314.56-11.04L314.56-11.04L314.56-11.04Q314.05-9.92 313.63-9.02L313.63-9.02L313.63-9.02Q313.22-8.13 312.03-6.11L312.03-6.11L312.03-6.11Q310.85-4.10 309.89-3.01L309.89-3.01L309.89-3.01Q307.26 0 304.93 0L304.93 0L304.93 0Q302.59 0 301.57-1.41L301.57-1.41L301.57-1.41Q300.54-2.82 300.54-4.54L300.54-4.54L300.54-4.54Q300.54-6.27 301.38-8.32L301.38-8.32L305.47-18.75L305.47-18.75Q305.60-19.14 305.60-19.78L305.60-19.78L305.60-19.78Q305.60-20.42 304.83-21.44L304.83-21.44L308.35-21.50L308.35-21.50Q309.82-21.50 310.08-20.96L310.08-20.96L310.08-20.96Q310.34-20.42 309.70-19.26L309.70-19.26L304.58-7.30L304.58-7.30Q303.49-4.93 303.49-3.26L303.49-3.26L303.49-3.26Q303.49-1.41 305.47-1.41ZM333.44-20.99L333.44-20.99L333.44-20.99Q325.57-7.17 325.57-2.94L325.57-2.94L325.57-2.94Q325.57-1.28 326.78-1.28L326.78-1.28L326.78-1.28Q330.05-1.28 335.55-12.35L335.55-12.35L335.55-12.35Q335.94-13.25 336.32-13.06L336.32-13.06L336.32-13.06Q336.70-12.86 336.70-12.54L336.70-12.54L336.70-12.54Q336.70-12.22 336.45-11.78L336.45-11.78L336.45-11.78Q333.06-4.93 330.72-2.34L330.72-2.34L330.72-2.34Q328.38 0.26 326.05 0.26L326.05 0.26L326.05 0.26Q323.71 0.26 322.50-1.54L322.50-1.54L322.50-1.54Q321.86-2.37 321.86-3.81L321.86-3.81L321.86-3.81Q321.86-5.25 322.50-7.30L322.50-7.30L322.50-7.30Q323.14-9.34 326.02-13.95L326.02-13.95L326.02-13.95Q326.72-15.10 326.72-15.78L326.72-15.78L326.72-15.78Q326.72-16.45 325.63-16.45L325.63-16.45L325.63-16.45Q324.54-16.45 321.47-13.57L321.47-13.57L321.47-13.57Q316.86-9.34 312.58-0.90L312.58-0.90L312.58-0.90Q312.19-0.26 311.71-0.10L311.71-0.10L311.71-0.10Q311.23 0.06 309.82 0.13L309.82 0.13L309.82 0.13Q308.42 0.19 307.97 0.45L307.97 0.45L307.97 0.45Q308.99-1.60 312.00-7.94L312.00-7.94L312.00-7.94Q317.38-19.14 319.04-20.74L319.04-20.74L319.04-20.74Q319.81-21.50 321.15-21.50L321.15-21.50L321.15-21.50Q321.41-21.50 322.46-21.31L322.46-21.31L322.46-21.31Q323.52-21.12 324.03-21.25L324.03-21.25L324.03-21.25Q321.66-19.97 316.29-9.22L316.29-9.22L316.29-9.22Q319.30-12.93 321.76-15.14L321.76-15.14L321.76-15.14Q324.22-17.34 327.68-19.23L327.68-19.23L327.68-19.23Q331.14-21.12 332.74-21.12L332.74-21.12L332.74-21.12Q333.12-21.12 333.44-20.99ZM338.37-9.86L338.37-9.86L338.37-9.86Q337.47-7.68 337.47-4.99L337.47-4.99L337.47-4.99Q337.47-3.20 338.27-2.14L338.27-2.14L338.27-2.14Q339.07-1.09 340.54-1.09L340.54-1.09L340.54-1.09Q346.37-1.09 351.10-12.03L351.10-12.03L351.10-12.03Q351.55-13.06 352.19-12.93L352.19-12.93L352.19-12.93Q352.45-12.86 352.45-12.61L352.45-12.61L352.45-12.61Q352.45-12.35 351.01-9.25L351.01-9.25L351.01-9.25Q349.57-6.14 348.10-4.22L348.10-4.22L348.10-4.22Q344.83 0.26 340.03 0.26L340.03 0.26L340.03 0.26Q337.47 0.26 335.68-1.41L335.68-1.41L335.68-1.41Q333.89-3.07 333.89-5.95L333.89-5.95L333.89-5.95Q333.89-8.83 335.26-12.06L335.26-12.06L335.26-12.06Q336.64-15.30 339.01-18.08L339.01-18.08L339.01-18.08Q341.38-20.86 344.45-22.14L344.45-22.14L344.45-22.14Q345.92-22.78 347.26-22.78L347.26-22.78L347.26-22.78Q348.61-22.78 349.76-22.02L349.76-22.02L349.76-22.02Q350.85-21.12 350.85-20.03L350.85-20.03L350.85-20.03Q350.85-16.19 346.24-12.67L346.24-12.67L346.24-12.67Q344.83-11.58 342.27-10.72L342.27-10.72L342.27-10.72Q339.71-9.86 338.37-9.86ZM349.12-20.10L349.12-20.10L349.12-20.10Q349.12-21.38 348.10-21.38L348.10-21.38L348.10-21.38Q346.30-21.38 342.66-16.96L342.66-16.96L342.66-16.96Q340.48-14.27 338.82-10.94L338.82-10.94L338.82-10.94Q339.90-10.94 341.98-11.71L341.98-11.71L341.98-11.71Q344.06-12.48 345.60-13.76L345.60-13.76L345.60-13.76Q349.12-16.77 349.12-20.10Z" fill="#ccc"></path></g></g><style>text {
  font-size: 64px;
  font-family: Arial Black;
  dominant-baseline: central;
  text-anchor: middle;
}</style></svg>