<svg width="580" height="400" xmlns="http://www.w3.org/2000/svg">
 <!-- Created with Method Draw - http://github.com/duopixel/Method-Draw/ -->
 <g>
  <title>background</title>
  <rect fill="#fff" id="canvas_background" height="402" width="582" y="-1" x="-1"/>
  <g display="none" overflow="visible" y="0" x="0" height="100%" width="100%" id="canvasGrid">
   <rect fill="url(#gridpattern)" stroke-width="0" y="0" x="0" height="100%" width="100%"/>
  </g>
 </g>
 <g>
  <title>Layer 1</title>
  <path d="m68.5,99.453125c0,0 1.007545,0.212669 4,0c7.053276,-0.501259 11.937965,-2.498291 18,-3c4.982964,-0.412399 12,0 16,0c6,0 10,0 14,0c4,0 8.029968,0.488731 12,0c4.092209,-0.503777 8.958466,-2.499237 18,-3c3.993881,-0.221199 9.03746,0.610916 14,0c4.092209,-0.503777 7,-1 10,-1c3,0 7.160507,1.378517 13,0c2.176254,-0.513741 4,-1 6,-1c1,0 3,0 4,0c1,0 2,0 2,0l0,0l0,1l0,0" id="svg_2" fill-opacity="null" stroke-opacity="null" stroke-width="1.5" stroke="#000" fill="none"/>
  <path d="m135.5,95.453125c0,0 -0.466263,2.096603 1,8c1.524551,6.138062 4.579697,11.156876 7,17c1.711411,4.131714 4,8 5,11c1,3 1.789856,5.07843 3,8c0.855713,2.065857 1.493454,3.878555 2,7c0.640732,3.948349 0,6 0,8c0,1 0,2 0,3c0,1 0,2 0,3c0,1 0.765366,1.152237 0,3c-0.541199,1.306564 -1.692551,1.186005 -3,3c-0.826904,1.147263 -3,2 -3,2c-2,1 -2.823746,1.486252 -5,2c-0.973251,0.229752 -3,1 -5,1c-3,0 -6,1 -8,1c-2,0 -4,0 -6,0c-2,0 -3,0 -6,0c-1,0 -3.078438,0.210144 -6,-1c-2.065857,-0.855713 -7.186005,-2.692551 -9,-4c-2.29454,-1.653809 -3.458801,-1.693436 -4,-3c-0.382683,-0.923874 0,-2 0,-3c0,-1 0,-1 0,-2c0,-1 0.413284,-2.488251 3,-5c6.768181,-6.572037 11.868286,-7.288589 16,-9c2.921562,-1.210144 4,-2 5,-2c0,0 1.076118,-0.61731 2,-1c1.306564,-0.541199 2.152245,-1.234634 4,-2c1.306564,-0.541199 1.693436,-2.458801 3,-3c0.923874,-0.38269 1.292892,-0.292892 2,-1c0.707108,-0.707108 1,0 2,-1c1,-1 2.310013,-1.337494 5,-3c1.203003,-0.7435 3.152237,-2.234634 5,-3c1.306564,-0.541199 2.076126,-0.61731 3,-1c1.306564,-0.541199 2,-1 3,-1c1,0 3,-1 4,-1c1,0 2,0 4,0c1,0 2.852737,0.173096 4,1c1.813995,1.307449 3,2 4,3c1,1 2.418854,1.418854 4,3c1.581146,1.581146 2,3 4,5c1,1 2,2 3,3c1,1 3.053497,1.540497 5,2c2.176254,0.513748 4.907791,2.496231 9,3c2.977524,0.366547 8.10701,0.919006 12,0c6.528748,-1.541229 7.692551,-4.186005 9,-6c0.826904,-1.147263 2,-2 2,-3c0,0 0,0 0,-1c0,0 0,-2 0,-2c0,-1 0,-1 0,-2c0,0 0,-1 0,-1c0,-2 -1,-3 -2,-5c-1,-2 -1.458801,-2.693436 -2,-4c-0.38269,-0.923882 0,-2 0,-3c0,-2 -0.540497,-3.053505 -1,-5c-0.513748,-2.176254 -1,-3 -1,-3c0,0 0,0 0,2c0,2 0.770248,5.026749 1,6c0.513748,2.176254 0.692551,4.186005 2,6c0.826904,1.14727 1.149353,2.474266 2,3c1.902115,1.175568 1,2 2,3c1,1 1,1 2,2c0,0 1,0 1,0c1,1 1,1 2,1c0,0 1,1 1,1c0,0 0,0 0,0c1,0 1,1 1,1c0,0 0.934143,0.144287 3,1c2.92157,1.210144 8,2 13,2c5,0 11.142227,0.639038 17,-1c5.185974,-1.451065 8.21167,-3.714127 11,-6c2.187347,-1.793198 3.789856,-5.078438 5,-8c0.855713,-2.065857 1,-5 1,-7c0,-3 0.613129,-4.91761 -2,-6c-2.771637,-1.148048 -6.080261,-0.310738 -9,-1c-2.176239,-0.513741 -4,-1 -5,-1c-1,0 -2,0 -2,0c-1,0 -2,0 -1,0c0,0 0,0 1,0c0,0 0,0 0,0c1,1 2,1 2,1c0,0 0,0 0,0c0,-2 0.493469,-4.878555 1,-8c0.320374,-1.974174 0,-4 0,-5c0,-2 -1.310211,-4.718987 -4,-8c-2.285873,-2.788322 -4.714127,-7.211678 -7,-10c-3.58638,-4.374687 -5,-8 -7,-10c-1,-1 -2,-2 -2,-2c0,0 0,0 -1,0c0,0 -0.917603,-0.613129 -2,2c-0.38269,0.923882 -2.144287,3.934143 -3,6c-1.210144,2.921562 -2.11586,7.963837 -3,11c-1.152771,3.958679 -1.497559,7.925797 -2,13c-0.39415,3.98053 0,8 0,12c0,4 0.569504,6.133003 2,10c0.775803,2.097176 1.692551,4.186005 3,6c0.826904,1.147263 3,3 5,5c2,2 4.186005,2.692551 6,4c2.29454,1.653809 4.053497,2.540497 6,3c2.176254,0.513748 3.884964,2.274307 6,3c4.823029,1.654816 8.041321,0.847229 12,2c3.036163,0.88414 5.152252,1.234634 7,2c1.306549,0.541199 3.054138,1.567322 6,1c5.287994,-1.018372 7.868286,-3.288589 12,-5c2.92157,-1.210144 6.2771,-0.228012 10,-2c4.514679,-2.148865 4.234619,-4.152237 5,-6c0.541199,-1.306564 1,-2 1,-3c0,-1 0,-3 0,-5c0,-2 -1,-4 -2,-6c-1,-2 -1.458801,-2.693436 -2,-4c-0.765381,-1.847755 0,-3 0,-5c0,-2 0,-3 0,-4c0,0 -1,0 -1,0c0,1 0.486267,1.823746 1,4c0.229767,0.973251 1.486267,2.823746 2,5c0.229767,0.973251 0.61731,3.076118 1,4c0.541199,1.306564 1.173096,1.85273 2,3c1.307465,1.813995 2,3 2,3c1,1 2,1 4,1c1,0 4.132996,0.430496 8,-1c2.097168,-0.775795 8.132019,-2.755318 12,-5c3.118469,-1.809723 7.186005,-4.692551 9,-6c1.147278,-0.826904 1,-2 2,-2c0,0 0,-1 0,-1c0,-1 -1.852722,-2.173096 -3,-3c-1.813995,-1.307449 -3.878571,-1.493462 -7,-2c-1.974182,-0.320366 -4,0 -5,0c-1,0 -2,0 -3,0c0,0 -1,0 -1,1c0,0 -1,1 -1,2c0,1 0,2 0,4c0,2 0,4 1,6c1,2 3.61731,5.076118 4,6c1.082397,2.613129 2.693451,3.458801 4,4c0.923889,0.38269 3,1 4,1c1,0 3,0 4,0c2,0 3.418854,0.581146 5,-1c1.581146,-1.581146 2,-4 3,-6c1,-2 1,-4 2,-5c0,0 1,-1 1,-1c1,0 2,-1 4,-1c3,0 5,0 7,1c4,2 5.693451,3.458801 7,4c1.847748,0.765366 3.458801,0.693436 4,2c0.38269,0.923882 1.173096,2.85273 2,4c1.307465,1.813995 1.61731,4.076126 2,5c0.541199,1.306564 2,2 2,2c0,0 0.285889,-1.21167 -2,-4c-0.896606,-1.093674 -2,-3 -2,-4c0,-1 0,-2 0,-3c0,-1 0.186005,-2.692551 2,-4c1.147278,-0.826904 2.693451,-2.458801 4,-3c0.923889,-0.382683 2,0 3,0c1,0 2.076111,-0.382683 3,0c1.306549,0.541199 1,1 3,3c2,2 3.418854,3.418861 5,5c1.581146,1.581139 4,3 7,4c0,0 0,0 0,0c1,-1 1.458801,-0.693436 2,-2c0.38269,-0.923882 1,-2 1,-2c1,-1 1,-2 1,-2l0,0l1,-1l0,0" id="svg_3" fill-opacity="null" stroke-opacity="null" stroke-width="1.5" stroke="#000" fill="none"/>
  <path d="m301.5,88.453125c0,0 -1,0 -1,0c0,0 -1,1 -1,1c0,0 0,0 0,1c0,0 0,0 0,0c0,1 0,1 1,1c0,0 0,0 0,0c1,0 1,0 1,0c0,0 1,0 1,0c0,-1 0,-1 0,-2c0,0 0,0 0,-1c0,0 0,0 0,-1c0,0 0,0 0,0c-1,0 -1,0 -1,0c0,0 0,0 0,1c0,0 0,0 0,0c-1,0 -1,1 -1,1c0,0 0,1 0,1c1,0 2,0 2,0c1,0 1,0 2,0c0,0 0,-1 1,-1c0,0 0,-1 0,-1c0,0 0,0 0,-1c0,0 -1,0 -2,0c0,0 -1,0 -1,0c0,0 0,0 -1,0c0,0 0,0 0,1c0,0 0,0 0,1c0,0 0,0 1,0c0,0 0,0 0,0c1,0 1,0 2,0c0,0 0,0 0,0c1,0 1,0 1,-1c0,0 0,0 -1,0c0,0 0,0 -1,0c0,0 0,0 -1,0c0,0 0,0 0,0c-1,0 -1,0 -1,0c0,0 0,0 0,1c0,0 0,0 0,0c0,1 0,1 0,1c0,0 -0.707092,1.292892 0,2c0.707092,0.707108 1,0 1,0c0,0 1,0 1,0c0,0 0.292908,-0.292892 1,-1c0.707092,-0.707108 0.486267,-1.823746 1,-4c0.229767,-0.973251 1,-1 1,-2c0,0 0,0 0,0c0,0 -1,0 -1,0c-1,0 -1,0 -1,0c-1,0 -1,0 -1,1c0,0 -0.292908,-0.707108 -1,0c-0.707092,0.707108 0,1 0,1c0,1 0,1 0,1c0,0 1,0 1,0c0,0 1,0 1,0c1,0 1,0 2,0c0,0 1,0 1,0c0,0 0,0 1,0c0,0 0,-1 0,-1c0,0 0,0 -1,0c0,0 -1,0 -1,0c-1,0 -1,0 -2,0l0,0l0,0l0,0" id="svg_4" fill-opacity="null" stroke-opacity="null" stroke-width="1.5" stroke="#000" fill="none"/>
 </g>
</svg>